<?xml version="1.0" encoding="UTF-8"?>
<svg id="Capa_1" data-name="Capa 1" xmlns="http://www.w3.org/2000/svg" viewBox="0 0 808.18 744.68">
  <defs>
    <style>
      .cls-1 {
        fill: #d94470;
        stroke-width: 0px;
      }
    </style>
  </defs>
  <g>
    <g>
      <g>
        <path class="cls-1" d="m78.86,590.07c-.55,0-1-.45-1-1v-78.22c-2.1-1.11-4.25-1.67-6.42-1.67-.55,0-1-.45-1-1v-.55c0-.55.45-1,1-1,7.79,0,15.85,5.93,15.85,15.85v66.58c0,.55-.45,1-1,1h-7.42Z"/>
        <path class="cls-1" d="m71.44,507.64c7.53,0,14.84,5.79,14.84,14.85v66.59h-7.42v-78.81c-2.29-1.31-4.8-2.07-7.42-2.07v-.55m0-2c-1.1,0-2,.9-2,2v.55c0,1.1.9,2,2,2,1.82,0,3.64.43,5.42,1.28v77.6c0,1.1.9,2,2,2h7.42c1.1,0,2-.9,2-2v-66.59c0-10.54-8.56-16.85-16.84-16.85h0Z"/>
      </g>
      <g>
        <path class="cls-1" d="m134.59,590.14c-13.7,0-25.7-9.04-29.19-21.99-2.08-7.71-.96-15.79,3.15-22.74,4.11-6.95,10.72-11.95,18.63-14.07,2.66-.72,5.39-1.08,8.13-1.08,13.72,0,25.74,9.04,29.23,21.99,2.08,7.71.96,15.79-3.15,22.74-4.11,6.95-10.72,11.95-18.63,14.07-2.68.72-5.43,1.08-8.17,1.08Zm-.75-57.2c-1.92,0-3.95.29-6.02.87-9.4,2.6-18.55,12.53-13.38,31.96,4.37,15.88,14.37,21.54,22.26,21.54h0c1.76,0,3.59-.25,5.44-.74,5.47-1.46,9.51-4.38,11.99-8.69,3.34-5.8,3.79-14.06,1.28-23.26-3.63-13.58-11.69-21.68-21.56-21.68Z"/>
        <path class="cls-1" d="m135.31,531.26c12.95,0,24.81,8.43,28.26,21.25,4.15,15.39-5.24,31.33-21.07,35.58-2.65.71-5.3,1.05-7.91,1.05-12.99,0-24.77-8.43-28.22-21.25-4.15-15.39,5.24-31.33,21.07-35.58,2.63-.71,5.27-1.05,7.87-1.05m1.38,57.06c1.82,0,3.72-.25,5.7-.78,15.61-4.15,17.79-19.21,13.97-33.18-3.18-11.89-10.62-22.42-22.52-22.42-1.98,0-4.07.29-6.29.91-14.63,4.04-17.79,19.21-14.08,33.18,3.31,12,11.52,22.28,23.22,22.28m-1.38-59.06v2-2h0c-2.82,0-5.65.38-8.39,1.12-8.15,2.19-14.98,7.35-19.22,14.53-4.25,7.18-5.4,15.53-3.25,23.51,3.61,13.38,16.01,22.72,30.15,22.72,2.83,0,5.66-.38,8.43-1.12,8.16-2.19,14.98-7.35,19.23-14.53,4.25-7.18,5.4-15.53,3.25-23.51-3.61-13.38-16.02-22.72-30.19-22.72h0Zm1.38,57.06c-7.52,0-17.07-5.47-21.3-20.81-4.97-18.71,3.73-28.25,12.69-30.72,1.99-.56,3.93-.84,5.76-.84,4.51,0,15.53,2.04,20.59,20.93,2.45,8.95,2.03,16.94-1.18,22.51-2.34,4.07-6.17,6.84-11.38,8.22-1.77.47-3.51.71-5.19.71h0Z"/>
      </g>
      <g>
        <path class="cls-1" d="m183.65,590.07c-.55,0-1-.45-1-1v-57.74c0-.55.45-1,1-1h7.42c.55,0,1,.45,1,1v7.15c4.51-4.73,10.14-7.37,17.13-8.04,1.08-.1,2.2-.15,3.34-.15,8.06,0,16.4,2.42,23.49,4.78.29.1.53.33.63.62.1.29.06.62-.11.88l-4.69,7.2c-.16.25-.42.41-.72.45-.04,0-.08,0-.12,0-.25,0-.49-.09-.68-.27-8.03-7.44-14.47-11.05-19.7-11.05-.42,0-.83.02-1.23.07-3.12.36-7.88,2.38-11.91,6.98-3.5,3.97-5.43,9.04-5.43,14.3v34.82c0,.55-.45,1-1,1h-7.42Z"/>
        <path class="cls-1" d="m212.55,531.3c7.49,0,15.45,2.16,23.17,4.73l-4.69,7.2c-8.18-7.57-14.77-11.32-20.38-11.32-.45,0-.9.02-1.34.07-3.82.44-8.73,2.95-12.55,7.31-3.27,3.71-5.68,8.84-5.68,14.95v34.82h-7.42v-57.74h7.42v9.82c5.02-6.33,11.35-9.06,18.23-9.71,1.07-.1,2.15-.14,3.25-.14m0-2c-1.17,0-2.32.05-3.43.15-6.29.6-11.67,2.85-16.05,6.7v-4.81c0-1.1-.9-2-2-2h-7.42c-1.1,0-2,.9-2,2v57.74c0,1.1.9,2,2,2h7.42c1.1,0,2-.9,2-2v-34.82c0-5.01,1.84-9.85,5.18-13.63,3.17-3.62,7.59-6.23,11.28-6.65.36-.04.74-.06,1.12-.06,4.96,0,11.18,3.53,19.02,10.78.37.34.86.53,1.36.53.08,0,.16,0,.25-.02.58-.07,1.11-.4,1.43-.89l4.69-7.2c.34-.52.42-1.17.21-1.75-.2-.58-.67-1.04-1.26-1.24-7.17-2.39-15.6-4.83-23.8-4.83h0Z"/>
      </g>
      <g>
        <path class="cls-1" d="m280.03,590.07c-16.86,0-30.58-13.38-30.58-29.82,0-14.54,10.63-26.94,25.28-29.48,1.8-.24,3.53-.45,5.3-.45,6.01,0,13.4,1.51,23.24,4.74.31.1.56.35.65.67.09.32.02.66-.19.91l-35.85,43.79c1.12.96,2.25,1.77,3.37,2.41,3.22,1.79,6.98,2.74,10.89,2.74,4.49,0,8.99-1.21,13.01-3.51,5.74-3.26,9.92-8.33,11.77-14.27.08-.27.27-.49.53-.61.14-.06.28-.1.43-.1.13,0,.25.02.37.07l.55.22c.48.19.73.72.59,1.22-3.79,12.63-15.85,21.45-29.34,21.45Zm-2.26-57.09c-1.46.09-2.87.35-4.56.83-12.94,4.14-14.34,19.87-14.34,26.44-.1,6.91,2.52,13.58,7.22,18.49l29.58-36.27c-4.15-3.55-7.83-6.12-10.95-7.63-2.72-1.25-5-1.86-6.96-1.86Z"/>
        <path class="cls-1" d="m280.03,531.33c6.66,0,14.63,1.97,22.92,4.69l-36.46,44.54c1.31,1.2,2.73,2.29,4.26,3.17,3.51,1.95,7.43,2.87,11.39,2.87,4.66,0,9.37-1.28,13.5-3.64,5.57-3.17,10.15-8.19,12.23-14.85l.55.22c-3.6,12.01-14.95,20.74-28.38,20.74-16.37,0-29.58-12.88-29.58-28.82,0-14.3,10.59-26.09,24.45-28.49,1.64-.22,3.38-.44,5.13-.44m-13.86,48.9l30.89-37.88c-4.26-3.71-8.3-6.66-11.9-8.41-2.62-1.2-5.13-1.96-7.42-1.96-1.75.11-3.27.44-4.8.87-10.92,3.49-15.06,15.28-15.06,27.4-.11,7.75,3.06,14.95,8.3,19.98m13.86-50.9c-1.83,0-3.6.21-5.39.45-.03,0-.05,0-.08.01-15.13,2.62-26.11,15.43-26.11,30.46,0,16.99,14.17,30.82,31.58,30.82,13.92,0,26.38-9.11,30.3-22.16.3-.99-.21-2.05-1.17-2.43l-.55-.22c-.24-.1-.49-.14-.74-.14-.29,0-.59.06-.86.19-.5.24-.88.68-1.05,1.21-2.28,7.31-7.4,11.48-11.3,13.7-3.87,2.21-8.19,3.38-12.51,3.38-3.73,0-7.34-.91-10.41-2.62-.8-.46-1.62-1.02-2.44-1.67l35.22-43.02c.42-.51.56-1.19.37-1.83-.18-.63-.67-1.13-1.3-1.34-9.94-3.27-17.43-4.79-23.55-4.79h0Zm-6.52,5.44c1.59-.45,2.92-.7,4.28-.79,1.8.01,3.94.6,6.53,1.78,2.82,1.37,6.16,3.67,9.95,6.84l-28.23,34.61c-4.04-4.62-6.27-10.68-6.18-16.93,0-6.37,1.33-21.55,13.64-25.51h0Z"/>
      </g>
      <g>
        <path class="cls-1" d="m376.42,590.07c-.55,0-1-.45-1-1l-.11-28.82c0-18.94-5.56-27.39-18.02-27.39h-.18c-8.27,0-16.16,3.59-21.17,9.62v46.58c0,.55-.45,1-1,1h-7.42c-.55,0-1-.45-1-1v-57.74c0-.55.45-1,1-1h7.42c.55,0,1,.45,1,1v7.39c5.72-5.36,13.3-8.39,21.16-8.39,16.01,0,27.63,12.59,27.63,29.93v28.82c0,.55-.45,1-1,1h-7.31Z"/>
        <path class="cls-1" d="m357.1,531.33c16.37,0,26.63,12.99,26.63,28.93v28.82h-7.31l-.11-28.82c0-14.46-3.03-28.38-19.02-28.38-.06,0-.12,0-.19,0-9.06,0-17.14,4.04-22.16,10.26v46.94h-7.42v-57.74h7.42v9.82c5.46-6,13.32-9.82,22.16-9.82m0-2c-7.37,0-14.49,2.58-20.16,7.19v-5.19c0-1.1-.9-2-2-2h-7.42c-1.1,0-2,.9-2,2v57.74c0,1.1.9,2,2,2h7.42c1.1,0,2-.9,2-2v-46.21c4.83-5.64,12.31-8.98,20.16-8.98h.19c11.77,0,17.02,8.14,17.02,26.38l.11,28.82c0,1.1.9,1.99,2,1.99h7.31c1.1,0,2-.9,2-2v-28.82c0-17.92-12.04-30.93-28.63-30.93h0Z"/>
      </g>
      <g>
        <path class="cls-1" d="m445.84,590.07c-.34,0-.66-.17-.84-.46l-5.24-8.21c-6.05,3.88-14.65,8.66-22.57,8.66-1.89,0-3.7-.27-5.37-.8-4.41-1.58-7.71-5.25-9.07-10.07-4.22-15.11,7.32-22.31,18.36-26.84l-10.16-16.01c-.16-.26-.2-.58-.1-.87.1-.29.33-.52.62-.62,9.12-3.12,16.89-4.75,23.12-4.86,13.07,0,19.68,7.42,19.68,22.07v37c0,.55-.45,1-1,1h-7.42Zm-23.29-35.53c-10.39,5-13.36,11.26-10.24,21.46,2.08,5.98,5.58,8.91,10.68,8.91,4.12,0,9.25-1.93,15.26-5.75l-15.69-24.62Zm22.29,30.02v-25.08c0-2.18.02-4.21.03-6.1.11-14.7-.11-19.41-5.67-20.53-.7-.2-1.49-.2-2.19-.2-4.87.1-10.71,3.25-18.89,10.22l26.72,41.69Z"/>
        <path class="cls-1" d="m434.59,531c11.13,0,18.67,5.35,18.67,21.07v37h-7.42l-5.79-9.06c-7.34,4.78-15.47,9.05-22.87,9.05-1.74,0-3.43-.23-5.07-.75-4.26-1.53-7.2-5.13-8.41-9.39-4.15-14.85,7.86-21.72,18.88-26.09l-10.81-17.03c8.3-2.84,16.26-4.69,22.81-4.8m11.24,56.98v-28.49c0-18.12,1.09-26.09-6.44-27.62-.76-.22-1.64-.22-2.4-.22-5.68.11-12.23,4.15-20.19,11.03l29.04,45.3m-22.86-2.06c5.31,0,11.36-2.99,16.64-6.45l-16.7-26.2c-10.48,4.8-15.17,11.24-11.57,23.03,2.46,7.07,6.73,9.62,11.64,9.62m11.62-56.92s-.02,0-.03,0c-6.33.1-14.21,1.76-23.43,4.91-.58.2-1.04.65-1.24,1.23-.2.58-.13,1.22.2,1.73l9.52,15c-7.93,3.31-22.51,10.84-17.84,27.58,1.45,5.14,4.97,9.05,9.66,10.73.02,0,.05.02.07.02,1.77.56,3.68.85,5.67.85,7.82,0,16.17-4.45,22.27-8.29l4.71,7.37c.37.58,1,.92,1.69.92h7.42c1.1,0,2-.9,2-2v-37c0-15.31-6.95-23.07-20.67-23.07h0Zm-15.17,14.07c7.56-6.33,13.18-9.33,17.61-9.42.6,0,1.32,0,1.81.14.05.01.1.03.15.04,4.55.92,4.98,4.53,4.87,19.54-.01,1.9-.03,3.93-.03,6.11v21.66l-24.41-38.08h0Zm-6.18,32.61c-2.88-9.45-.37-15.14,8.94-19.84l14.67,23.01c-5.47,3.36-10.13,5.07-13.87,5.07-4.61,0-7.79-2.7-9.73-8.24h0Z"/>
      </g>
      <g>
        <path class="cls-1" d="m479.78,590.07c-.55,0-1-.45-1-1v-54.53c-2.1-1.11-4.26-1.67-6.42-1.67-.55,0-1-.45-1-1v-.55c0-.55.45-1,1-1,7.79,0,15.85,5.93,15.85,15.85v42.9c0,.55-.45,1-1,1h-7.42Zm3.71-66.58c-2.64,0-4.71-2.07-4.71-4.71s2.07-4.71,4.71-4.71,4.71,2.16,4.71,4.71-2.16,4.71-4.71,4.71Z"/>
        <path class="cls-1" d="m483.49,515.07c1.97,0,3.71,1.64,3.71,3.71s-1.75,3.71-3.71,3.71c-2.07,0-3.71-1.64-3.71-3.71s1.64-3.71,3.71-3.71m-11.13,16.26c7.53,0,14.85,5.79,14.85,14.85v42.9h-7.42v-55.12c-2.29-1.31-4.8-2.07-7.42-2.07v-.55m11.13-18.26c-3.2,0-5.71,2.51-5.71,5.71s2.51,5.71,5.71,5.71,5.71-2.56,5.71-5.71-2.56-5.71-5.71-5.71h0Zm-11.13,16.26c-1.1,0-2,.9-2,2v.55c0,1.1.9,2,2,2,1.82,0,3.64.43,5.42,1.28v53.92c0,1.1.9,2,2,2h7.42c1.1,0,2-.9,2-2v-42.9c0-4.78-1.86-9.14-5.24-12.28-3.11-2.9-7.35-4.56-11.61-4.56h0Z"/>
      </g>
      <g>
        <path class="cls-1" d="m513.73,590.07c-.55,0-1-.45-1-1v-78.22c-2.1-1.11-4.26-1.67-6.42-1.67-.55,0-1-.45-1-1v-.55c0-.55.45-1,1-1,7.79,0,15.84,5.93,15.84,15.85v66.58c0,.55-.45,1-1,1h-7.42Z"/>
        <path class="cls-1" d="m506.31,507.64c7.53,0,14.84,5.79,14.84,14.85v66.59h-7.42v-78.81c-2.29-1.31-4.8-2.07-7.42-2.07v-.55m0-2c-1.1,0-2,.9-2,2v.55c0,1.1.9,2,2,2,1.82,0,3.64.43,5.42,1.28v77.6c0,1.1.9,2,2,2h7.42c1.1,0,2-.9,2-2v-66.59c0-10.54-8.56-16.85-16.84-16.85h0Z"/>
      </g>
      <g>
        <path class="cls-1" d="m571.24,590.08c-12.37,0-22.81-3.96-31.4-7.84-.27-.12-.47-.35-.55-.63s-.04-.58.13-.83l4.69-7.1c.18-.27.48-.44.8-.45.01,0,.02,0,.03,0,.31,0,.61.15.8.4,8.05,10.62,16.3,13.15,26.22,13.69.4.04.75.05,1.1.05h0c3.1,0,5.94-1.29,7.99-3.62,2.17-2.47,3.26-5.94,2.85-9.05-.83-5.59-6.42-9.7-15.34-11.26l-.56-.13c-10.83-2.51-23.1-5.36-22.87-16.49.12-10.31,10.26-16.48,19.99-16.48,5.77,0,13.11,1.47,23.11,4.63.3.09.54.33.64.63.1.3.06.63-.12.89l-4.8,6.99c-.16.23-.41.39-.7.42-.04,0-.09,0-.13,0-.24,0-.47-.08-.65-.24-4.71-4.05-8.97-7.01-12.66-8.81-2.35-1.23-4.64-1.84-6.83-1.84-6.05,0-10,4.62-10.07,11.76.09,5.65,7.74,7.26,16.6,9.13l1.71.36c15.24,3.14,22.23,11.02,22.4,17.43-.1,11.52-8.31,18.38-21.96,18.38h-.45Z"/>
        <path class="cls-1" d="m565.14,531.33c6.55,0,14.52,1.97,22.81,4.58l-4.8,6.99c-4.69-4.04-9.06-7.1-12.88-8.95-2.51-1.32-4.99-1.94-7.27-1.94-6.23,0-10.99,4.68-11.07,12.75.11,6.88,9.39,8.41,19.1,10.48,10.59,2.18,21.39,8.3,21.61,16.48-.11,12.44-9.71,17.36-20.96,17.36-.15,0-.3,0-.45,0-13.12,0-24.3-4.73-30.99-7.75l4.69-7.1c8.19,10.81,16.81,13.54,26.96,14.08.39.03.78.05,1.16.05,7.93,0,12.67-7.45,11.83-13.81-.76-5.13-5.57-10.26-16.16-12.12-10.81-2.51-22.81-5.13-22.59-15.61.11-9.61,9.71-15.5,18.99-15.5m0-2c-5.12,0-10.27,1.66-14.13,4.55-4.37,3.27-6.8,7.86-6.86,12.93-.25,11.92,13,14.99,23.64,17.46l.51.12s.07.02.11.02c8.34,1.46,13.77,5.36,14.52,10.44.37,2.8-.63,5.97-2.62,8.23-1.31,1.5-3.64,3.28-7.24,3.28-.32,0-.65-.01-.98-.04-.02,0-.05,0-.07,0-9.64-.52-17.66-2.98-25.47-13.29-.38-.5-.97-.79-1.59-.79-.02,0-.04,0-.06,0-.65.02-1.25.35-1.6.9l-4.69,7.1c-.32.49-.42,1.1-.25,1.66.16.56.56,1.03,1.1,1.27,5.25,2.37,17.56,7.93,31.81,7.93h.46c14.25,0,22.84-7.23,22.94-19.34,0-.02,0-.05,0-.07-.12-4.44-2.81-8.62-7.77-12.08-4.11-2.86-9.59-5.1-15.43-6.31l-1.7-.36c-9.77-2.06-15.72-3.64-15.81-8.17.07-6.53,3.63-10.74,9.07-10.74,2.01,0,4.2.59,6.34,1.71.02,0,.04.02.05.03,3.62,1.76,7.81,4.67,12.45,8.67.36.31.83.48,1.3.48.09,0,.17,0,.26-.02.56-.07,1.07-.38,1.39-.85l4.8-6.99c.36-.52.45-1.18.24-1.78-.21-.6-.68-1.07-1.29-1.26-10.11-3.19-17.55-4.68-23.42-4.68h0Z"/>
      </g>
      <g>
        <path class="cls-1" d="m651.48,590.07c-16.86,0-30.58-13.38-30.58-29.82,0-14.54,10.63-26.94,25.28-29.48,1.8-.24,3.53-.45,5.3-.45,6.01,0,13.4,1.51,23.24,4.74.3.1.53.33.63.62.1.29.06.62-.11.88l-4.8,7.2c-.16.24-.42.4-.7.44-.04,0-.09,0-.13,0-.24,0-.48-.09-.66-.25-4.79-4.23-9.05-7.27-12.66-9.02-2.76-1.33-5.09-1.97-7.09-1.97-1.41.09-2.83.35-4.53.83-12.94,4.14-14.34,19.87-14.34,26.44-.1,9.43,4.64,18.09,12.38,22.61,3.19,1.74,6.96,2.67,10.89,2.67s7.68-.86,11.22-2.5c6.65-3.15,11.46-8.56,13.55-15.22.08-.27.27-.49.53-.6.14-.06.28-.1.43-.1.13,0,.25.02.37.07l.55.22c.48.19.73.72.59,1.22-3.79,12.63-15.85,21.45-29.34,21.45Z"/>
        <path class="cls-1" d="m651.48,531.33c6.66,0,14.63,1.97,22.92,4.69l-4.8,7.2c-4.69-4.15-9.06-7.31-12.88-9.17-2.73-1.31-5.24-2.07-7.53-2.07-1.75.11-3.27.44-4.8.87-10.92,3.49-15.06,15.28-15.06,27.4-.11,9.93,5.02,18.88,12.88,23.47,3.49,1.91,7.42,2.81,11.39,2.81s7.98-.9,11.64-2.59c6.44-3.06,11.79-8.51,14.08-15.83l.55.22c-3.6,12.01-14.95,20.74-28.38,20.74-16.37,0-29.58-12.88-29.58-28.82,0-14.3,10.59-26.09,24.45-28.49,1.64-.22,3.38-.44,5.13-.44m0-2c-1.83,0-3.6.21-5.39.45-.03,0-.05,0-.08.01-15.13,2.62-26.11,15.43-26.11,30.46,0,16.99,14.17,30.82,31.58,30.82,13.92,0,26.38-9.11,30.3-22.16.3-.99-.21-2.05-1.17-2.43l-.55-.22c-.24-.1-.49-.14-.74-.14-.29,0-.59.06-.86.19-.5.24-.88.68-1.05,1.21-2,6.39-6.63,11.58-13.03,14.62-3.39,1.57-7.12,2.4-10.78,2.4s-7.35-.88-10.41-2.55c-7.42-4.34-11.96-12.65-11.86-21.7,0-6.37,1.33-21.54,13.64-25.51,1.59-.45,2.92-.7,4.28-.79,1.84.01,4,.63,6.61,1.88,3.52,1.71,7.7,4.69,12.42,8.86.37.32.84.5,1.32.5.09,0,.17,0,.26-.02.57-.07,1.09-.39,1.41-.87l4.8-7.2c.35-.52.43-1.17.23-1.76-.2-.59-.67-1.05-1.27-1.25-9.94-3.27-17.43-4.79-23.55-4.79h0Z"/>
      </g>
      <g>
        <path class="cls-1" d="m697.87,590.07c-.55,0-1-.45-1-1v-78.22c-2.1-1.11-4.25-1.67-6.42-1.67-.55,0-1-.45-1-1v-.55c0-.55.45-1,1-1,7.79,0,15.85,5.93,15.85,15.85v66.58c0,.55-.45,1-1,1h-7.42Z"/>
        <path class="cls-1" d="m690.45,507.64c7.53,0,14.85,5.79,14.85,14.85v66.59h-7.42v-78.81c-2.29-1.31-4.8-2.07-7.42-2.07v-.55m0-2c-1.1,0-2,.9-2,2v.55c0,1.1.9,2,2,2,1.82,0,3.64.43,5.42,1.28v77.6c0,1.1.9,2,2,2h7.42c1.1,0,2-.9,2-2v-66.59c0-10.54-8.56-16.85-16.85-16.85h0Z"/>
      </g>
    </g>
    <path class="cls-1" d="m615.33,585.78c-3.86,1.82-5.34,3.29-7.15,7.15-1.82-3.86-3.29-5.34-7.15-7.15,3.86-1.82,5.34-3.29,7.15-7.15,1.82,3.86,3.29,5.34,7.15,7.15Z"/>
  </g>
  <path class="cls-1" d="m639.74,386.42c-14.97,7.04-20.68,12.75-27.72,27.72-7.04-14.97-12.75-20.68-27.72-27.72,14.97-7.04,20.68-12.75,27.72-27.72,7.04,14.97,12.75,20.68,27.72,27.72Z"/>
  <path class="cls-1" d="m165.57,164.02c-7.49,3.52-10.34,6.37-13.86,13.86-3.52-7.49-6.37-10.34-13.86-13.86,7.49-3.52,10.34-6.37,13.86-13.86,3.52,7.49,6.37,10.34,13.86,13.86Z"/>
  <g>
    <path class="cls-1" d="m191.44,443.33c-12.99-41.86-22.3-85.12-25.34-128.9-.95-18.5-1.15-37.43,3.95-55.47,3.12-10.87,9.56-20.63,15.82-29.84,25.67-35.72,58.26-65.94,92.38-93.39-15.76,15.14-31.07,30.66-45.84,46.73-19.13,21.33-38.59,43.28-51.59,68.97-19.31,40.83,2.33,145.26,10.61,191.89h0Z"/>
    <path class="cls-1" d="m311.58,130.78c7.78,7.6,10.07,19.56,9.19,30.14-1.78,18.94-12.22,35.89-24.55,49.85-8.74,9.82-18.83,18.53-29.81,25.69,14.04-16.86,28.63-32.88,39.23-52.09,8.68-16.09,14.89-36.28,5.94-53.6h0Z"/>
    <path class="cls-1" d="m251.06,241.89c25.96,27.6,31.74,71.87,25.58,108.04-2.06,12.54-5.43,24.81-10.22,36.49,4.26-23.07,7.19-46.15,6.09-69.54-1.46-26.1-7.41-52.65-21.44-74.99h0Z"/>
    <path class="cls-1" d="m376.62,183.63c-5.05-13.59-16.25-29.45-32.58-25.66-8.89,2.1-16.37,7.57-23.33,13.55,0,0,.71-.81.71-.81-14.48,24.64-35.2,63-35.68,91.57-.04,4.69.62,9.44,2.36,13.95-2.65-4.06-4.12-8.9-4.82-13.77-3.62-31.08,15.8-69.78,31.97-95.7,0,0,.32-.5.32-.5l.4-.32c7.93-6.41,16.77-12.25,27.07-13.82,19.09-2.99,31.02,14.74,33.59,31.51h0Z"/>
    <path class="cls-1" d="m410.95,196.73c-28.19-7.82-58.11,54.94-68.32,75.84-7.75,17.77-31.89,61.9-24.29,79.53-7.96-11.8-.58-35.78,3.53-48.45,6.24-17.4,13.57-34.52,22.19-50.89,6.87-12.76,14.46-25.23,24.02-36.23,9.19-10.67,27.95-27.63,42.87-19.81h0Z"/>
    <path class="cls-1" d="m423.6,203.05c7.6,4.31,12.45,12.58,14.41,21,5.29,26.22-9.55,51.73-23.97,72.47-6.03,12.12-16.6,29.7-26.12,42.42-9.39,12.22-22.25,28.58-37.49,33.03,20.89-10.14,46.06-58.61,57.44-79.92,13.74-19.51,29.43-44.1,26.28-68.86-1.2-7.59-4.63-15.06-10.55-20.14h0Z"/>
    <path class="cls-1" d="m465.15,241.89c18.37,7.23,17.39,34.41,14.06,50.45-5.66,27.33-18.19,52.7-32.67,76.34-9.83,15.65-20.72,30.86-34.44,43.41-6.89,6.08-14.68,11.91-23.74,14.08,29.33-12.77,63.86-79.75,76.27-109.68,7.83-19.2,22.66-60.71.51-74.59h0Z"/>
    <path class="cls-1" d="m497.67,283.45c8.91-4.62,20.51-3.19,28.12,3.59,21.57,20.1,19.82,64.5,18.11,91.67-2.45,26.72-9.94,53.72-25.44,75.91-5.68,7.91-12.61,15.05-20.78,20.34,3.53-3.3,6.78-6.82,9.73-10.56,14.53-18.81,21.93-42.07,26.21-65.19,2-10.35,2.83-21.23,3.4-31.73,1.18-26.93,3.25-94.39-39.35-84.03h0Z"/>
    <path class="cls-1" d="m529.28,334.03c-7.62,16.4-16.43,31.92-25.45,47.53-8.11,13.2-21.34,35.85-38.68,36.48,14.88-4.77,25.14-26.9,33.22-39.71,9.15-15.5,19.08-30.64,30.92-44.3h0Z"/>
    <path class="cls-1" d="m509.76,366.74c-.4-.65-.82-1.29-1.24-1.93-.63,2.42-1.74,4.7-3.32,6.62.01.02.03.05.04.07,6.07,3.2,12.51,5.93,19.41,6.75-4.14-4.83-9.41-8.43-14.9-11.51Z"/>
    <path class="cls-1" d="m435.73,238.97c-.69-.32-1.39-.64-2.09-.95.79,2.38,1.1,4.89.82,7.36.03.01.05.03.08.04,6.83-.61,13.72-1.83,19.96-4.9-6.1-1.8-12.48-1.96-18.76-1.55Z"/>
    <path class="cls-1" d="m241.28,169.13c41.88.33,85.73-66.42,85.73-66.42-51.18-6.22-85.73,66.42-85.73,66.42Zm17.34-18.98s32.78-36.05,49.08-41.88l-49.08,41.88Z"/>
    <g>
      <path class="cls-1" d="m328.6,286.83c10.12-24.82,9.34-48.6-1.75-53.13-11.09-4.52-28.29,11.93-38.41,36.74-10.12,24.82-9.34,48.6,1.75,53.13,11.09,4.52,28.29-11.93,38.41-36.74Zm-34.68,5.51c-2.07,8.21-2.79,16.42-3.56,25-6.1-26.66,5.27-57.51,25.56-75.45-9.88,15.66-17.84,32.42-22.01,50.44Z"/>
      <path class="cls-1" d="m359.56,307.72c-11.52-5.75-31.29,10.47-44.16,36.24-12.87,25.77-13.96,51.32-2.44,57.08,11.52,5.75,31.29-10.47,44.16-36.24,12.87-25.77,13.96-51.32,2.44-57.08Zm-24.47,26.46c-4.3,5.39-8.24,11-11.61,16.91-3.35,5.91-6.13,12.12-8.03,18.64-1.92,6.53-2.8,13.35-2.97,20.44-1.94-6.81-2.2-14.21-.89-21.33,1.21-7.15,3.93-14,7.48-20.27,3.59-6.26,8.02-11.99,13.08-17.03,5.04-5.04,10.61-9.58,16.86-12.96-4.96,5.04-9.58,10.22-13.91,15.59Z"/>
      <path class="cls-1" d="m407.8,358.3c-12.17-6.08-35.45,8.28-48.55,34.53-13.11,26.25-17.83,49.27-5.66,55.35,12.17,6.08,32.03-9.03,46.4-34.61,14.15-25.2,19.99-49.19,7.82-55.26Zm-50.68,78.08c-7.69-28.45,12.51-57.83,36.52-71.58-19.13,19.47-36.55,43.15-36.52,71.58Z"/>
      <path class="cls-1" d="m470.96,371.96c-10.12-5.05-29.48,6.88-40.38,28.71-10.9,21.83-15.86,37.61-5.74,42.66,10.12,5.05,21.59-6.36,36.98-25.29,14.44-17.77,19.26-41.03,9.14-46.08Zm-42.19,66.8c-5.92-24.41,9.69-49.7,29.78-62.72-16.27,17.12-30.04,38.32-29.78,62.72Z"/>
    </g>
  </g>
</svg>